HIERARCHY
ROOT Hips
{
	OFFSET 54.079498 -17.569614 94.194901
	CHANNELS 6 Xposition Yposition Zposition Xrotation Yrotation Zrotation
	JOINT spine
	{
		OFFSET 0.000000 -0.448574 7.800591
		CHANNELS 3 Xrotation Yrotation Zrotation
		JOINT spine1
		{
			OFFSET 0.000000 -0.000002 10.136398
			CHANNELS 3 Xrotation Yrotation Zrotation
			JOINT spine2
			{
				OFFSET 0.000000 0.000000 9.712509
				CHANNELS 3 Xrotation Yrotation Zrotation
				JOINT Neck
				{
					OFFSET 0.000000 -1.188875 24.936104
					CHANNELS 3 Xrotation Yrotation Zrotation
					JOINT Head
					{
						OFFSET 0.000000 0.000000 7.533844
						CHANNELS 3 Xrotation Yrotation Zrotation
						End Site
						{
							OFFSET 0.000000 6.014017 18.236099
						}
					}
				}
				JOINT RightShoulder
				{
					OFFSET -4.089649 0.569454 10.488792
					CHANNELS 3 Xrotation Yrotation Zrotation
					JOINT RightArm
					{
						OFFSET 0.000000 -0.000002 13.757004
						CHANNELS 3 Xrotation Yrotation Zrotation
						JOINT RightArmRoll
						{
							OFFSET 0.000000 -0.000002 6.944778
							CHANNELS 3 Xrotation Yrotation Zrotation
							JOINT RightForeArm
							{
								OFFSET 0.000000 -0.000004 20.227692
								CHANNELS 3 Xrotation Yrotation Zrotation
								JOINT RightForeArmRoll
								{
									OFFSET 0.000000 0.000000 7.793121
									CHANNELS 3 Xrotation Yrotation Zrotation
									JOINT RightHand
									{
										OFFSET 0.000000 -0.000004 15.639099
										CHANNELS 3 Xrotation Yrotation Zrotation
										End Site
										{
											OFFSET 0.000000 0.000000 0.100006
										}
									}
								}
							}
						}
					}
				}
				JOINT LeftShoulder
				{
					OFFSET 4.089649 0.569454 10.488792
					CHANNELS 3 Xrotation Yrotation Zrotation
					JOINT LeftArm
					{
						OFFSET 0.000000 -0.000002 13.757004
						CHANNELS 3 Xrotation Yrotation Zrotation
						JOINT LeftArmRoll
						{
							OFFSET 0.000000 -0.000002 6.944778
							CHANNELS 3 Xrotation Yrotation Zrotation
							JOINT LeftForeArm
							{
								OFFSET 0.000000 -0.000004 20.227692
								CHANNELS 3 Xrotation Yrotation Zrotation
								JOINT LeftForeArmRoll
								{
									OFFSET 0.000000 0.000000 7.793121
									CHANNELS 3 Xrotation Yrotation Zrotation
									JOINT LeftHand
									{
										OFFSET 0.000000 -0.000004 15.639099
										CHANNELS 3 Xrotation Yrotation Zrotation
										End Site
										{
											OFFSET 0.000000 0.000000 0.100006
										}
									}
								}
							}
						}
					}
				}
			}
		}
	}
	JOINT RightUpLeg
	{
		OFFSET -6.914162 1.063580 -1.267883
		CHANNELS 3 Xrotation Yrotation Zrotation
		JOINT RightUpLegRoll
		{
			OFFSET 0.000000 -0.000004 18.337799
			CHANNELS 3 Xrotation Yrotation Zrotation
			JOINT RightLeg
			{
				OFFSET 0.000000 0.000004 -22.708496
				CHANNELS 3 Xrotation Yrotation Zrotation
				JOINT RightLegRoll
				{
					OFFSET 0.000000 -0.000004 22.782799
					CHANNELS 3 Xrotation Yrotation Zrotation
					JOINT RightFoot
					{
						OFFSET 0.000000 -0.000002 18.962898
						CHANNELS 3 Xrotation Yrotation Zrotation
						JOINT RightToeBase
						{
							OFFSET 0.000000 -0.000002 15.852005
							CHANNELS 3 Xrotation Yrotation Zrotation
							End Site
							{
								OFFSET 0.006718 0.884892 7.677002
							}
						}
					}
				}
			}
		}
	}
	JOINT LeftUpLeg
	{
		OFFSET 6.914162 1.063580 -1.267883
		CHANNELS 3 Xrotation Yrotation Zrotation
		JOINT LeftUpLegRoll
		{
			OFFSET 0.000000 -0.000004 18.337898
			CHANNELS 3 Xrotation Yrotation Zrotation
			JOINT LeftLeg
			{
				OFFSET 0.000000 -0.000002 22.708397
				CHANNELS 3 Xrotation Yrotation Zrotation
				JOINT LeftLegRoll
				{
					OFFSET 0.000000 -0.000004 22.993393
					CHANNELS 3 Xrotation Yrotation Zrotation
					JOINT LeftFoot
					{
						OFFSET 0.000000 -0.000004 18.752197
						CHANNELS 3 Xrotation Yrotation Zrotation
						JOINT LeftToeBase
						{
							OFFSET 0.000000 -0.000002 15.852005
							CHANNELS 3 Xrotation Yrotation Zrotation
							End Site
							{
								OFFSET -0.030113 0.884892 7.677002
							}
						}
					}
				}
			}
		}
	}
}
MOTION
Frames: 7
Frame Time: 0.041667
54.342705 -17.459114 94.069801 -6.292291 0.322548 -2.557605 -1.221711 0.334927 0.309325 1.557625 0.666224 0.625045 3.202701 0.673662 0.617019 17.819250 -2.020430 -0.673825 -15.330510 -9.671180 -0.975238 -12.269645 -71.981287 -15.029358 129.326791 -46.328009 63.615180 0.000002 -0.000002 0.000008 95.223711 5.448352 -11.246727 -0.000004 0.000003 -3.000005 -5.000351 -7.998718 0.000232 3.182077 65.316170 -2.803005 -44.906984 119.177444 67.317136 0.000001 -0.000001 -0.000002 105.098518 -1.885766 12.413927 -0.000000 -0.000012 3.000002 -4.999662 7.998750 -0.000029 0.256624 -175.710045 -0.290071 -179.999991 0.000005 -0.980004 167.043819 1.558310 -0.860546 -0.000005 0.000000 0.124891 71.016325 5.536699 5.677918 25.457261 -7.355625 0.000572 2.702697 177.968256 5.530200 -0.000005 -0.000005 -1.350880 -11.270642 4.286631 0.694241 -0.000001 -0.000000 -0.206412 72.490048 -7.158484 -1.114536 25.456965 7.355617 -0.000010 
54.337399 -17.462914 94.071892 -6.312755 0.325868 -2.542521 -1.214423 0.335819 0.308591 1.572187 0.668048 0.624108 3.217273 0.675476 0.616060 17.694452 -2.028442 -0.687481 -15.150726 -9.681133 -0.972000 -12.287885 -72.086506 -15.053571 129.437084 -46.311732 64.057851 0.000003 0.000000 0.000007 95.156304 5.346614 -11.128923 -0.000004 0.000001 -2.999998 -5.000348 -7.998719 0.000234 3.291752 65.324428 -2.925830 -44.774083 119.124947 67.158641 0.000000 -0.000001 0.000001 105.160195 -1.902301 12.435164 0.000001 -0.000013 3.000001 -4.999665 7.998748 -0.000031 0.282915 -175.716056 -0.287238 -179.999991 0.000004 -0.981002 167.043833 1.556366 -0.860993 -0.000005 -0.000000 0.125541 71.021974 5.537118 5.675807 25.457264 -7.355627 0.000572 2.717997 177.961276 5.524096 -0.000005 -0.000004 -1.351200 -11.279269 4.286709 0.694516 -0.000001 -0.000000 -0.206461 72.490621 -7.157181 -1.117098 25.456964 7.355616 -0.000010 
54.342899 -17.473114 94.072792 -6.333656 0.329421 -2.526846 -1.206683 0.336617 0.307832 1.587658 0.669694 0.623080 3.232747 0.677109 0.615015 17.565351 -2.035882 -0.701619 -14.971052 -9.691570 -0.969121 -12.308166 -72.192326 -15.079979 129.544783 -46.311722 64.500256 0.000003 -0.000004 0.000006 95.114790 5.260451 -11.037118 -0.000002 -0.000001 -3.000003 -5.000350 -7.998721 0.000230 3.396395 65.331019 -3.043163 -44.635515 119.065429 66.992599 0.000002 0.000000 0.000000 105.225901 -1.919676 12.460610 0.000002 -0.000015 3.000001 -4.999663 7.998746 -0.000028 0.309980 -175.722066 -0.284460 -179.999991 0.000005 -0.981001 167.044338 1.555398 -0.861231 -0.000006 -0.000000 0.126194 71.027643 5.537607 5.673409 25.457261 -7.355625 0.000571 2.733417 177.955333 5.517921 -0.000004 -0.000004 -1.351519 -11.288295 4.286663 0.694818 -0.000002 -0.000001 -0.206509 72.491181 -7.155883 -1.119761 25.456965 7.355617 -0.000010 
54.337200 -17.468613 94.073502 -6.354826 0.333186 -2.510613 -1.198553 0.337312 0.307052 1.603930 0.671132 0.621969 3.249017 0.678534 0.613886 17.433134 -2.042801 -0.716120 -14.793715 -9.702204 -0.966656 -12.330232 -72.296726 -15.108240 129.650664 -46.327285 64.937300 0.000001 -0.000005 0.000006 95.098329 5.190929 -10.971269 -0.000002 -0.000002 -3.000000 -5.000348 -7.998724 0.000235 3.493561 65.335602 -3.152301 -44.492689 119.002017 66.821441 0.000001 -0.000001 0.000001 105.294046 -1.937697 12.485186 -0.000001 -0.000014 3.000000 -4.999670 7.998751 -0.000027 0.337657 -175.729074 -0.281749 -179.999991 0.000005 -0.981002 167.045254 1.553447 -0.860694 -0.000005 -0.000001 0.126838 71.033120 5.538146 5.671025 25.457261 -7.355626 0.000571 2.748841 177.947369 5.511599 -0.000005 -0.000004 -1.351820 -11.297719 4.286444 0.695152 -0.000002 -0.000000 -0.206557 72.491728 -7.154525 -1.122516 25.456960 7.355616 -0.000010 
54.333099 -17.464312 94.072403 -6.376142 0.337143 -2.493886 -1.190052 0.337890 0.306258 1.620921 0.672340 0.620773 3.266010 0.679728 0.612677 17.299117 -2.049231 -0.730883 -14.621253 -9.712731 -0.964761 -12.353865 -72.397669 -15.138032 129.752175 -46.360264 65.359234 0.000002 -0.000002 0.000006 95.106320 5.139238 -10.931323 -0.000004 -0.000000 -2.999998 -5.000347 -7.998721 0.000228 3.580874 65.337870 -3.250601 -44.347414 118.937977 66.647763 0.000003 -0.000001 0.000002 105.363072 -1.955915 12.510827 -0.000001 -0.000014 3.000001 -4.999663 7.998747 -0.000027 0.365776 -175.736082 -0.279116 -179.999991 0.000005 -0.981998 167.046565 1.551510 -0.861178 -0.000005 -0.000000 0.127458 71.038598 5.538719 5.668448 25.457263 -7.355625 0.000572 2.764133 177.940389 5.505354 -0.000005 -0.000004 -1.352108 -11.307441 4.286015 0.695520 -0.000001 -0.000001 -0.206606 72.492165 -7.153171 -1.125479 25.456965 7.355617 -0.000010 
54.332798 -17.470318 94.070190 -6.397436 0.341269 -2.476696 -1.181250 0.338339 0.305452 1.638523 0.673291 0.619499 3.283612 0.680664 0.611392 17.164482 -2.055215 -0.745822 -14.455677 -9.723176 -0.963551 -12.379017 -72.493442 -15.169244 129.849081 -46.410487 65.759497 0.000002 -0.000004 0.000007 95.138224 5.106327 -10.918267 -0.000005 -0.000001 -2.999997 -5.000350 -7.998719 0.000230 3.655869 65.337371 -3.335338 -44.203936 118.875058 66.476974 0.000001 0.000001 -0.000000 105.431449 -1.973589 12.536418 -0.000003 -0.000013 3.000001 -4.999669 7.998753 -0.000025 0.394179 -175.743090 -0.276568 -179.999991 0.000005 -0.981999 167.048259 1.550549 -0.860449 -0.000005 -0.000000 0.128042 71.043905 5.539405 5.665700 25.457261 -7.355625 0.000570 2.779176 177.933436 5.499192 -0.000005 -0.000005 -1.352390 -11.317257 4.285338 0.695911 -0.000001 -0.000001 -0.206654 72.492493 -7.151825 -1.128449 25.456964 7.355616 -0.000010 
54.321301 -17.468412 94.070595 -6.418567 0.345546 -2.459087 -1.172192 0.338645 0.304641 1.656645 0.673959 0.618147 3.301744 0.681317 0.610032 17.030551 -2.060785 -0.760835 -14.299620 -9.733135 -0.963175 -12.405471 -72.582119 -15.201564 129.939158 -46.478891 66.129106 0.000002 -0.000006 0.000005 95.193480 5.093139 -10.934134 -0.000002 -0.000000 -3.000003 -5.000350 -7.998720 0.000231 3.716136 65.333894 -3.403844 -44.062739 118.817165 66.310195 0.000000 -0.000001 -0.000001 105.497435 -1.990237 12.561847 0.000003 -0.000012 3.000001 -4.999668 7.998750 -0.000025 0.422694 -175.751122 -0.274126 -179.999991 0.000006 -0.982996 167.050376 1.548606 -0.860956 -0.000005 -0.000000 0.128577 71.049028 5.540182 5.662772 25.457263 -7.355627 0.000571 2.793837 177.925458 5.493165 -0.000005 -0.000005 -1.352641 -11.327274 4.284355 0.696335 -0.000003 -0.000001 -0.206702 72.492718 -7.150483 -1.131627 25.456965 7.355616 -0.000010 
